#!OML:ASF E:\emotionWalksFemale\Project 1\Capture day 1\Session 1\Female1.ASF
:FULLY-SPECIFIED
:DEGREES
43
root 7.56033 15.1433 41.736 -177.934 3.07101 -181.273
lowerback 7.7435 1.59503 -0.170636
upperback -3.29462 2.10517 -0.588262
thorax -7.80103 1.03364 -0.827495
lowerneck -3.44543 -1.85864 -4.31367
upperneck 3.29203 -2.42493 3.74438
head 1.73985 -1.19229 1.87026
rclavicle 1.36152e-014 4.47266e-016
rhumerus -40.4417 3.83903 -88.5255
rradius 31.7645
rwrist 18.041
rhand -2.60973 -55.1416
rfingers 7.12502
rthumb 23.0885 -83.7783
lclavicle 1.36152e-014 4.47266e-016
lhumerus -46.637 1.71247 83.7896
lradius 33.2257
lwrist -18.3208
lhand -4.1757 -33.8606
lfingers 7.12502
lthumb 21.5852 -5.04362
rfemur -25.7356 3.33079 20.6768
rtibia 53.1095
rfoot -22.1951 -19.5091
rtoes 3.93053
lfemur -4.7762 -19.4506 -31.5758
ltibia 21.7341
lfoot -24.766 23.5158
ltoes -16.014
44
root 7.55309 15.1443 41.7155 -177.808 3.21003 -181.194
lowerback 7.80597 1.63739 -0.154799
upperback -3.34417 2.16701 -0.54777
thorax -7.89095 1.06387 -0.806049
lowerneck -3.36085 -1.81796 -4.27715
upperneck 3.099 -2.36978 3.73083
head 1.65888 -1.16448 1.86041
rclavicle -1.52591e-014 -2.48481e-016
rhumerus -40.382 4.08032 -88.662
rradius 31.4439
rwrist 18.2558
rhand -2.81648 -54.9118
rfingers 7.12502
rthumb 22.8901 -83.5732
lclavicle -1.52591e-014 -2.48481e-016
lhumerus -46.5751 1.51869 83.7515
lradius 32.9858
lwrist -19.799
lhand -4.83253 -33.5044
lfingers 7.12502
lthumb 20.9543 -4.61624
rfemur -26.3686 3.36107 20.8691
rtibia 53.0227
rfoot -22.0207 -19.6709
rtoes 3.20056
lfemur -4.77858 -19.4322 -31.5176
ltibia 21.6549
lfoot -24.9265 23.622
ltoes -16.049
45
root 7.54244 15.1376 41.6953 -177.718 3.18862 -181.057
lowerback 7.87871 1.61341 -0.0225154
upperback -3.3432 2.15201 -0.49401
thorax -7.92946 1.05044 -0.823845
lowerneck -3.21214 -1.79551 -4.31956
upperneck 2.80887 -2.34214 3.87165
head 1.5414 -1.14928 1.91445
rclavicle 6.82546e-016 -2.38542e-015
rhumerus -40.4671 4.52075 -88.9319
rradius 31.4497
rwrist 18.7138
rhand -3.09423 -55.2226
rfingers 7.12502
rthumb 22.6235 -83.9168
lclavicle 6.82546e-016 -2.38542e-015
lhumerus -46.3712 1.50849 83.6649
lradius 32.8182
lwrist -20.8141
lhand -5.07817 -33.4243
lfingers 7.12502
lthumb 20.7183 -4.51024
rfemur -26.9392 3.24663 21.1129
rtibia 52.832
rfoot -21.4595 -20.0782
rtoes 1.38143
lfemur -4.75758 -19.5002 -31.4173
ltibia 21.5822
lfoot -25.009 23.6159
ltoes -15.8807
46
root 7.53844 15.1363 41.6735 -177.629 3.2441 -181.06
lowerback 7.91538 1.62859 -0.101289
upperback -3.30202 2.16236 -0.487181
thorax -7.90962 1.05918 -0.774216
lowerneck -3.34031 -1.81588 -4.42165
upperneck 2.6931 -2.36908 4.1679
head 1.53615 -1.15775 2.02862
rclavicle -1.96859e-014 -5.96354e-016
rhumerus -40.5565 4.84033 -89.1532
rradius 31.6483
rwrist 18.9593
rhand -3.28375 -55.4094
rfingers 7.12502
rthumb 22.4416 -84.1256
lclavicle -1.96859e-014 -5.96354e-016
lhumerus -46.1093 1.43611 83.6669
lradius 32.744
lwrist -21.2982
lhand -5.4756 -33.698
lfingers 7.12502
lthumb 20.3364 -4.74273
rfemur -27.4748 3.32085 21.2042
rtibia 52.5202
rfoot -21.086 -20.1338
rtoes 0.3476
lfemur -4.75063 -19.4282 -31.4445
ltibia 21.5378
lfoot -24.9988 23.6565
ltoes -16.3339
47
root 7.53549 15.1375 41.6475 -177.686 3.31734 -181.126
lowerback 8.03774 1.62789 -0.256
upperback -3.24847 2.14193 -0.47775
thorax -7.92954 1.05615 -0.677388
lowerneck -3.40068 -1.82045 -4.37345
upperneck 2.60512 -2.37587 4.2323
head 1.51927 -1.15905 2.04039
rclavicle 2.2114e-014 -1.2424e-015
rhumerus -40.6078 5.08202 -89.2809
rradius 31.7093
rwrist 18.9871
rhand -3.41245 -55.2507
rfingers 7.12502
rthumb 22.3181 -83.9818
lclavicle 2.2114e-014 -1.2424e-015
lhumerus -46.0158 1.27608 83.7542
lradius 32.8729
lwrist -21.2077
lhand -5.01685 -33.7343
lfingers 7.12502
lthumb 20.7772 -4.82673
rfemur -27.8001 3.47049 21.2185
rtibia 52.0974
rfoot -21.2395 -19.7917
rtoes 1.63049
lfemur -4.53747 -19.4484 -31.6112
ltibia 21.4828
lfoot -25.1086 23.8078
ltoes -16.0654
48
root 7.53171 15.1374 41.6137 -177.738 3.19815 -181.114
lowerback 8.02774 1.5264 -0.317254
upperback -3.17833 2.00332 -0.385545
thorax -7.85473 0.993433 -0.523533
lowerneck -3.30426 -1.79057 -4.24968
upperneck 2.46683 -2.32997 3.95953
head 1.44775 -1.13934 1.92957
rclavicle -2.55042e-014 2.48481e-016
rhumerus -40.6311 5.48767 -89.3831
rradius 31.7281
rwrist 18.9556
rhand -3.35801 -55.1498
rfingers 7.12502
rthumb 22.3703 -83.8746
lclavicle -2.55042e-014 2.48481e-016
lhumerus -45.9335 1.07143 83.9696
lradius 33.0264
lwrist -20.7889
lhand -4.24543 -33.5148
lfingers 7.12502
lthumb 21.5183 -4.69013
rfemur -27.9789 3.49637 21.3135
rtibia 51.5452
rfoot -21.6206 -19.6376
rtoes 3.89578
lfemur -4.24334 -19.5329 -31.6871
ltibia 21.3663
lfoot -25.2639 23.7627
ltoes -15.492
49
root 7.5252 15.1349 41.5843 -177.823 3.17109 -181.064
lowerback 8.17299 1.45802 -0.304459
upperback -3.09594 1.91703 -0.270187
thorax -7.85445 0.952051 -0.399061
lowerneck -3.34181 -1.7598 -4.2422
upperneck 2.33317 -2.27597 3.76589
head 1.40516 -1.11403 1.86573
rclavicle 9.76452e-015 4.96962e-016
rhumerus -40.5554 5.84715 -89.3945
rradius 31.7685
rwrist 18.9102
rhand -2.55868 -54.7079
rfingers 7.12502
rthumb 23.1375 -83.3385
lclavicle 9.76452e-015 4.96962e-016
lhumerus -45.8245 0.718681 84.3647
lradius 33.1202
lwrist -20.3691
lhand -4.12851 -33.3643
lfingers 7.12502
lthumb 21.6306 -4.55248
rfemur -28.1448 3.62049 21.4251
rtibia 50.8768
rfoot -21.6103 -19.8659
rtoes 3.23044
lfemur -3.95641 -19.5655 -31.7419
ltibia 21.2479
lfoot -25.3766 23.7223
ltoes -15.0638
50
root 7.5222 15.1368 41.5535 -177.89 2.80219 -180.886
lowerback 8.29674 1.27749 -0.183806
upperback -3.01911 1.69369 -0.156446
thorax -7.84394 0.838662 -0.315584
lowerneck -3.2185 -1.68134 -4.28128
upperneck 1.98738 -2.16947 3.84853
head 1.27059 -1.06057 1.90179
rclavicle -9.88954e-015 -2.98177e-016
rhumerus -40.5465 6.20228 -89.5762
rradius 32.0005
rwrist 18.852
rhand -1.09923 -54.8355
rfingers 7.12502
rthumb 24.5371 -83.2834
lclavicle -9.88954e-015 -2.98177e-016
lhumerus -45.7622 0.331947 84.6786
lradius 33.2
lwrist -19.9483
lhand -4.37577 -33.4599
lfingers 7.12502
lthumb 21.3931 -4.62097
rfemur -28.2331 3.55333 21.7094
rtibia 50.0959
rfoot -21.4027 -20.3621
rtoes 2.39006
lfemur -3.69413 -19.7111 -31.6072
ltibia 21.1582
lfoot -25.4156 23.5879
ltoes -15.4115
51
root 7.5204 15.1442 41.5241 -177.737 2.42074 -180.666
lowerback 8.27822 1.09639 -0.00727847
upperback -3.01791 1.47645 -0.0867689
thorax -7.82944 0.725742 -0.308435
lowerneck -3.21909 -1.6154 -4.38071
upperneck 1.73591 -2.08313 4.1628
head 1.19413 -1.01453 2.02391
rclavicle 1.83713e-014 1.68967e-015
rhumerus -40.7141 6.89846 -90.095
rradius 32.4984
rwrist 18.2837
rhand -1.30842 -55.7647
rfingers 7.12502
rthumb 24.3366 -84.2396
lclavicle 1.83713e-014 1.68967e-015
lhumerus -45.6433 0.0204641 84.842
lradius 33.3608
lwrist -19.3316
lhand -4.38268 -33.5513
lfingers 7.12502
lthumb 21.3864 -4.71159
rfemur -28.5226 3.53164 22.0171
rtibia 49.2379
rfoot -21.2655 -20.6064
rtoes 3.17944
lfemur -3.72626 -19.8138 -31.3219
ltibia 21.1305
lfoot -25.3923 23.4851
ltoes -16.9011
52
root 7.51718 15.148 41.495 -177.457 2.57576 -180.63
lowerback 8.14159 1.13485 -0.056452
upperback -3.03592 1.52447 -0.0755136
thorax -7.77103 0.752781 -0.273314
lowerneck -3.47414 -1.62777 -4.48129
upperneck 1.68776 -2.09544 4.4497
head 1.23102 -1.01601 2.13532
rclavicle 1.85021e-015 -2.68359e-015
rhumerus -40.7678 7.55943 -90.5526
rradius 32.8309
rwrist 17.4518
rhand -3.00311 -56.483
rfingers 7.12502
rthumb 22.711 -85.1665
lclavicle 1.85021e-015 -2.68359e-015
lhumerus -45.4143 -0.268264 85.0084
lradius 33.5293
lwrist -18.6869
lhand -4.05055 -33.6996
lfingers 7.12502
lthumb 21.7054 -4.89644
rfemur -29.0398 3.95714 22.0477
rtibia 48.3198
rfoot -21.3655 -20.5684
rtoes 3.2028
lfemur -3.94637 -19.8838 -31.2622
ltibia 21.1946
lfoot -25.4376 23.7632
ltoes -17.1688
53
root 7.5123 15.1468 41.4676 -177.265 2.68119 -180.557
lowerback 8.14254 1.16253 -0.0679805
upperback -3.07805 1.56433 -0.0362175
thorax -7.81819 0.774239 -0.232065
lowerneck -3.4051 -1.66702 -4.41164
upperneck 1.44727 -2.1501 4.48138
head 1.14425 -1.04395 2.13136
rclavicle -1.19188e-014 -1.59028e-015
rhumerus -40.8406 8.02807 -90.8187
rradius 33.0178
rwrist 16.9541
rhand -3.53251 -57.2364
rfingers 7.12502
rthumb 22.2028 -85.9812
lclavicle -1.19188e-014 -1.59028e-015
lhumerus -45.2695 -0.516681 85.1756
lradius 33.6709
lwrist -18.1985
lhand -3.74298 -34.1557
lfingers 7.12502
lthumb 22.0008 -5.38695
rfemur -29.5074 4.30598 22.106
rtibia 47.4247
rfoot -21.6047 -20.7299
rtoes 3.00563
lfemur -3.90776 -20.0264 -31.2085
ltibia 20.9533
lfoot -25.3455 23.9266
ltoes -16.3757
54
root 7.5145 15.1459 41.4505 -177.044 2.63857 -180.358
lowerback 8.38238 1.13878 -0.0701204
upperback -3.22098 1.54335 0.0693392
thorax -8.1144 0.767179 -0.124216
lowerneck -3.16954 -1.67748 -4.23853
upperneck 1.18017 -2.17043 4.35123
head 1.01396 -1.05756 2.05706
rclavicle -1.1641e-014 8.94531e-016
rhumerus -40.9827 8.28899 -90.9903
rradius 33.1566
rwrist 16.7734
rhand -3.40552 -57.5152
rfingers 7.12502
rthumb 22.3247 -86.2455
lclavicle -1.1641e-014 8.94531e-016
lhumerus -45.2762 -0.879277 85.4213
lradius 33.9314
lwrist -17.5927
lhand -3.48705 -34.256
lfingers 7.12502
lthumb 22.2465 -5.51633
rfemur -30.019 4.64321 22.3214
rtibia 46.4444
rfoot -21.3679 -21.3563
rtoes 2.62008
lfemur -3.94372 -19.9633 -30.8908
ltibia 20.6254
lfoot -25.3318 23.5261
ltoes -15.6712
55
root 7.51092 15.1395 41.4052 -177.459 2.9373 -181.023
lowerback 8.6131 1.24312 -0.840915
upperback -3.00186 1.57507 -0.0527724
thorax -8.03098 0.81527 0.17335
lowerneck -3.18403 -1.66757 -4.24297
upperneck 0.963841 -2.15125 4.31511
head 0.946494 -1.04879 2.04602
rclavicle -1.25483e-014 -1.09332e-015
rhumerus -40.9532 8.68763 -91.2032
rradius 33.3001
rwrist 16.1381
rhand -2.91648 -57.6284
rfingers 7.12502
rthumb 22.7941 -86.3017
lclavicle -1.25483e-014 -1.09332e-015
lhumerus -45.1662 -1.29186 85.7712
lradius 34.2552
lwrist -16.9321
lhand -3.35489 -34.0666
lfingers 7.12502
lthumb 22.3733 -5.34214
rfemur -29.7617 5.17422 21.5496
rtibia 45.4361
rfoot -21.111 -21.5682
rtoes 2.36844
lfemur -3.06657 -20.0556 -31.9349
ltibia 20.3389
lfoot -25.7721 23.7396
ltoes -14.518
56
root 7.51003 15.1437 41.3615 -177.306 2.56086 -181.073
lowerback 8.32749 1.04729 -0.959403
upperback -2.9317 1.30665 0.0116369
thorax -7.79098 0.691623 0.35575
lowerneck -3.18175 -1.62054 -4.43096
upperneck 0.67165 -2.08144 4.52414
head 0.856958 -1.01411 2.14987
rclavicle 5.1024e-015 -1.49089e-015
rhumerus -40.9708 9.36581 -91.5559
rradius 33.45
rwrist 14.9371
rhand -2.66611 -57.3452
rfingers 7.12502
rthumb 23.0344 -85.9887
lclavicle 5.1024e-015 -1.49089e-015
lhumerus -44.9714 -1.43481 86.0121
lradius 34.4629
lwrist -16.3803
lhand -2.98706 -33.9182
lfingers 7.12502
lthumb 22.7264 -5.23661
rfemur -29.9215 5.55371 21.3687
rtibia 44.2657
rfoot -21.0853 -21.292
rtoes 3.65972
lfemur -2.8773 -20.2867 -31.9799
ltibia 20.063
lfoot -25.6571 23.7044
ltoes -15.0871
57
root 7.51153 15.1421 41.324 -177.096 2.6804 -180.761
lowerback 8.2448 1.03812 -0.830225
upperback -2.98504 1.3204 0.135208
thorax -7.8004 0.696296 0.412095
lowerneck -3.13122 -1.61866 -4.42481
upperneck 0.46679 -2.0828 4.68889
head 0.786194 -1.01566 2.20305
rclavicle -5.9053e-015 -4.47266e-015
rhumerus -40.9943 9.39938 -91.6291
rradius 33.4109
rwrist 14.7138
rhand -3.3348 -55.8717
rfingers 7.12502
rthumb 22.3926 -84.5938
lclavicle -5.9053e-015 -4.47266e-015
lhumerus -44.8798 -1.60466 86.1964
lradius 34.652
lwrist -15.8163
lhand -2.61937 -33.7027
lfingers 7.12502
lthumb 23.0792 -5.06481
rfemur -30.2125 6.16901 21.6044
rtibia 43.0642
rfoot -21.1748 -22.2734
rtoes 1.72491
lfemur -2.69994 -20.3271 -31.6542
ltibia 19.6164
lfoot -25.5733 23.9373
ltoes -15.5498
